<?xml version="1.0" encoding="UTF-8" standalone="no"?>
<svg xmlns:dc="http://purl.org/dc/elements/1.1/"
  xmlns:cc="http://creativecommons.org/ns#"
  xmlns:rdf="http://www.w3.org/1999/02/22-rdf-syntax-ns#"
  xmlns:svg="http://www.w3.org/2000/svg"
  xmlns="http://www.w3.org/2000/svg" viewBox="0 0 1893.3333 1555.8" height="1555.8" width="1893.3333" xml:space="preserve" id="svg2" version="1.1">
  <metadata id="metadata8">
    <rdf:RDF>
      <cc:Work rdf:about="">
        <dc:format>image/svg+xml</dc:format>
        <dc:type rdf:resource="http://purl.org/dc/dcmitype/StillImage" />
      </cc:Work>
    </rdf:RDF>
  </metadata>
  <defs id="defs6" />
  <g transform="matrix(1.3333333,0,0,-1.3333333,0,1555.8)" id="g10">
    <g transform="scale(0.1)" id="g12">
      <path id="path14" style="fill:none;fill-opacity:1;fillRule:evenodd;stroke:none" d="M 14200,0 H 0 V 11668.5 H 14200 V 0" />
      <path id="path16" style="fill:#c98acb;fill-opacity:1;fillRule:evenodd;stroke:none" d="M 6446.63,3019.83 H 3825.46 c -243.9,0 -441.63,-197.73 -441.63,-441.64 V 2232.8 c 0,-243.92 197.73,-441.63 441.63,-441.63 h 31.45 l 131.35,-131.37 131.32,131.37 h 2327.05 c 243.92,0 441.64,197.71 441.64,441.63 v 345.39 c 0,243.91 -197.72,441.64 -441.64,441.64" />
      <path id="path18" style="fill:#c98acb;fill-opacity:1;fillRule:evenodd;stroke:none" d="M 10637.5,1810.22 H 5779.96 c -118.32,0 -214.21,95.9 -214.21,214.21 v 3115.85 c 0,118.31 95.89,214.22 214.21,214.22 h 4857.54 c 118.3,0 214.2,-95.91 214.2,-214.22 V 2024.43 c 0,-118.31 -95.9,-214.21 -214.2,-214.21" />
      <path id="path20" style="fill:#d89ed4;fill-opacity:1;fillRule:evenodd;stroke:none" d="m 6207.01,4974.54 c 51.51,0 93.27,-41.76 93.27,-93.27 0,-51.5 -41.76,-93.26 -93.27,-93.26 -51.49,0 -93.25,41.76 -93.25,93.26 0,51.51 41.76,93.27 93.25,93.27" />
      <path id="path22" style="fill:#d89ed4;fill-opacity:1;fillRule:evenodd;stroke:none" d="m 6547.06,4974.54 c 51.52,0 93.28,-41.76 93.28,-93.27 0,-51.5 -41.76,-93.26 -93.28,-93.26 -51.49,0 -93.25,41.76 -93.25,93.26 0,51.51 41.76,93.27 93.25,93.27" />
      <path id="path24" style="fill:#d89ed4;fill-opacity:1;fillRule:evenodd;stroke:none" d="m 6887.14,4974.54 c 51.5,0 93.25,-41.76 93.25,-93.27 0,-51.5 -41.75,-93.26 -93.25,-93.26 -51.52,0 -93.27,41.76 -93.27,93.26 0,51.51 41.75,93.27 93.27,93.27" />
      <path id="path26" style="fill:#d89ed4;fill-opacity:1;fillRule:evenodd;stroke:none" d="m 6737.19,4231.47 c 0,-194.42 -157.64,-352.06 -352.06,-352.06 -194.46,0 -352.08,157.64 -352.08,352.06 0,194.45 157.62,352.07 352.08,352.07 194.42,0 352.06,-157.62 352.06,-352.07" />
      <path id="path28" style="fill:#d89ed4;fill-opacity:1;fillRule:evenodd;stroke:none" d="m 6304.2,3498.21 h 1364.65 c 165.25,0 300.45,-135.2 300.45,-300.45 v -535.98 c 0,-165.25 -135.2,-300.45 -300.45,-300.45 H 6304.2 c -165.25,0 -300.45,135.2 -300.45,300.45 v 535.98 c 0,165.25 135.2,300.45 300.45,300.45" />
      <path id="path30" style="fill:#d89ed4;fill-opacity:1;fillRule:evenodd;stroke:none" d="m 8638.52,3498.21 h 1364.68 c 165.2,0 300.4,-135.2 300.4,-300.45 v -535.98 c 0,-165.25 -135.2,-300.45 -300.4,-300.45 H 8638.52 c -165.26,0 -300.46,135.2 -300.46,300.45 v 535.98 c 0,165.25 135.2,300.45 300.46,300.45" />
      <path id="path32" style="fill:#c079c3;fill-opacity:1;fillRule:evenodd;stroke:none" d="m 8404.93,4371.22 h 2885.87 c 316.6,0 573.2,256.63 573.2,573.19 v 148.29 c 0,316.56 -256.6,573.2 -573.2,573.2 h -40.8 l -170.4,170.46 -170.5,-170.46 H 8404.93 c -316.58,0 -573.2,-256.64 -573.2,-573.2 v -148.29 c 0,-316.56 256.62,-573.19 573.2,-573.19" />
      <path id="path34" style="fill:#d89ed4;fill-opacity:1;fillRule:evenodd;stroke:none" d="M 8965.1,5458.07 H 10567 c 28.1,0 50.9,-22.8 50.9,-50.93 0,-28.14 -22.8,-50.94 -50.9,-50.94 H 8965.1 c -28.13,0 -50.94,22.8 -50.94,50.94 0,28.13 22.81,50.93 50.94,50.93" />
      <path id="path36" style="fill:#d89ed4;fill-opacity:1;fillRule:evenodd;stroke:none" d="m 8965.1,5207.34 h 1892.7 c 28.2,0 51,-22.8 51,-50.94 0,-28.12 -22.8,-50.93 -51,-50.93 H 8965.1 c -28.13,0 -50.94,22.81 -50.94,50.93 0,28.14 22.81,50.94 50.94,50.94" />
      <path id="path38" style="fill:#d89ed4;fill-opacity:1;fillRule:evenodd;stroke:none" d="m 8965.1,4956.62 h 2214.5 c 28.1,0 50.9,-22.81 50.9,-50.94 v 0 c 0,-28.14 -22.8,-50.95 -50.9,-50.95 H 8965.1 c -28.13,0 -50.94,22.81 -50.94,50.95 v 0 c 0,28.13 22.81,50.94 50.94,50.94" />
      <path id="path40" style="fill:#d89ed4;fill-opacity:1;fillRule:evenodd;stroke:none" d="m 8965.1,4696.3 h 1061.7 c 28.2,0 51,-22.82 51,-50.94 v -0.01 c 0,-28.14 -22.8,-50.94 -51,-50.94 H 8965.1 c -28.13,0 -50.94,22.8 -50.94,50.94 v 0.01 c 0,28.12 22.81,50.94 50.94,50.94" />
      <path id="path42" style="fill:#2a3e94;fill-opacity:1;fillRule:evenodd;stroke:none" d="m 10139.8,4971.76 c -26.8,8.2 -97.8,34.35 -153.35,94.59 -69.23,75.34 -117.66,202.85 -39.19,412.22 220.74,-141.16 283.94,-258.5 287.34,-345.56 23.1,40.7 45.6,81.67 67.5,122.92 -20.8,29.72 -50.6,81.98 -54.5,141.9 -3.1,46.82 10.5,97.6 55.5,149.02 43.6,52.36 120,104.43 248.6,156.22 46.7,-127.6 54.7,-225.03 41.9,-296 -14.5,-70.4 -51.2,-113.95 -91.3,-140.54 -53.4,-35.07 -114.4,-39.81 -149.9,-39 -21.8,-40.96 -44.2,-81.65 -67,-122.06 77.1,41.41 213.7,50.87 452.3,-46.63 -152.7,-213.06 -294,-237.76 -395.1,-210.5 -79.4,21.28 -134.2,72.47 -153.7,93.06 -36,-58.95 -73.2,-117.26 -111.3,-174.91 87.5,43.08 237.2,49.29 503.5,-79.72 -46,-56.82 -90.4,-100.87 -132.6,-134.24 -42.8,-32.96 -85,-54.3 -123.4,-68.16 -77.4,-27.42 -143.7,-22.37 -198.2,-3.98 -54.4,18.41 -96.9,50.05 -126.1,76.78 -18.77,17.2 -31.96,32.42 -38.98,41.08 -45.56,-63.75 -92.46,-126.6 -140.63,-188.51 97.91,43.11 267.11,37.88 552.21,-125.4 -54.5,-59.84 -109,-103.49 -158.4,-136.88 -49.9,-33 -95.6,-55.09 -140.1,-66.34 -87.96,-23.48 -160.64,-12.19 -218.88,12.65 -58.21,24.88 -102.11,63.24 -131.76,95 -20.7,22.25 -34.4,41.32 -40.77,50.77 -56,-66.63 -113.52,-132.07 -172.5,-196.22 51.83,19.11 119.71,25.27 208.8,5.26 100.66,-22.79 226.12,-76.36 386.61,-186.23 -63.4,-62.01 -127.19,-104.84 -184.46,-136.73 -57.78,-31.48 -109.72,-51.56 -158.63,-60.59 -98.18,-17.74 -176.28,1.11 -237.31,33.45 -61.02,32.38 -105.12,78.12 -134.38,115.36 -22.35,28.55 -35.95,52.18 -41.1,61.69 -61.59,-61.91 -124.58,-122.52 -188.94,-181.71 58.5,17.33 134.08,18.78 231.62,-11.68 105.25,-31.96 237.42,-101.94 400.96,-234.08 -38.02,-30.14 -74.01,-56.78 -109.4,-78.76 -35.95,-21.4 -70.25,-39.23 -102.95,-53.82 -65.56,-29.03 -123.92,-45.95 -177.49,-51.59 -107.96,-10.43 -190.54,17.09 -253.37,57.64 -62.8,40.6 -106.04,94.11 -134.08,137.06 -23.17,35.6 -35.83,64.02 -39.5,72.75 -80.74,-68.3 -163.36,-134.51 -247.78,-198.47 65,14.6 147.63,9.9 252,-33.4 111.4,-46.84 245.11,-133.41 407.63,-291.29 -21.84,-14.59 -43.19,-28.11 -64.03,-40.62 -21.14,-12.14 -42.23,-22.74 -62.51,-32.7 -40.7,-19.79 -79.3,-35.85 -115.82,-48.58 -36.62,-12.58 -70.74,-22.41 -103.65,-28.25 -33.15,-5.53 -64.23,-8.23 -93.37,-8.52 -116.59,-1.12 -201.99,36.44 -264.89,86.22 -62.94,49.96 -103.87,112.33 -129.16,161.01 -23.49,45.41 -34.08,80.2 -35.41,84.73 -58.53,-40.45 -117.8,-79.9 -177.84,-118.24 -9.7,16.6 -19.91,32.89 -30.57,48.91 59.15,37.78 117.55,76.66 175.24,116.51 -6.97,5.4 -33.31,26.65 -64.43,62.42 -36.45,41.78 -78.35,102.14 -104.79,177.91 -26.58,75.84 -37.69,166.69 -13.24,266.72 6.1,24.99 14.45,50.57 25.36,76.63 10.68,26.38 23.06,54.37 38.71,82.3 15.57,28.06 33.97,56.64 55.6,85.67 10.76,14.6 22.58,28.99 34.79,44.07 11.91,15.45 24.65,31.04 38.29,46.76 130.95,-183.79 198.67,-330.95 221.37,-444.96 21.56,-105.63 7.71,-185.58 -21.13,-245.07 82.51,62.6 163.27,127.34 242.21,194.12 -8.72,5.61 -33.86,22.69 -63.79,50.87 -37.32,35.03 -81.93,87.38 -113.13,154.97 -31.24,67.52 -49.26,150.19 -34.59,244.48 6.94,47.57 20.47,99.81 45.23,154.13 12.28,27.27 27.21,55.27 45.11,83.97 17.36,29.29 36.68,60.33 59.79,91.68 136.85,-159.13 210.78,-288.4 243.33,-393.75 28.13,-93.63 22.78,-167.3 2.07,-223.98 63.17,58.13 125.02,117.64 185.49,178.43 -9.93,5.37 -33.07,18.74 -60.79,40.61 -37.16,29.23 -82.44,73.79 -116.51,133.49 -34.09,59.66 -57.11,134.37 -50.72,222.64 3.03,44.31 11.42,93.87 30.25,146.14 18.37,52.71 47.8,107.66 84.51,170.72 137.44,-136.23 216.32,-250.97 252.74,-344.34 32.16,-82.01 33.76,-148.94 20.35,-202.12 58.13,63.25 114.82,127.76 170.03,193.45 -10.35,4.61 -31.45,14.8 -56.83,31.53 -36.24,23.82 -81.1,60.99 -116.85,112.98 -35.76,51.95 -62.54,118.59 -63.3,200.28 0.24,40.37 4.28,86.61 17.54,136.4 12.73,50.18 35.62,103.22 66.25,163.14 252.94,-213.54 304.66,-369.37 289.3,-476.07 47.77,61.38 94.27,123.69 139.45,186.9 -10.38,3.8 -28.93,11.32 -51.18,23.6 -34.52,18.99 -77.87,49.5 -114.06,94.25 -36.21,44.72 -65.36,103.6 -72.02,178.39 -3.55,37.56 -0.5,78.43 8.41,124.79 8.23,46.81 23.8,98.11 48.87,154.46 236.76,-173.26 299.7,-311.69 294.7,-408.61 37.8,57.06 74.6,114.76 110.2,173.11" />
      <path id="path44" style="fill:#4d52ad;fill-opacity:1;fillRule:evenodd;stroke:none" d="m 10107.6,3288.26 c 6.9,-199.32 -140.26,-251.1 -285.95,-313.35 -145.27,-62.32 -233.42,-55.21 -301.52,-229.09 -135.22,-345.23 -588.82,-517.81 -562.41,-655.31 1.9,-10.11 10.45,-15.19 24.1,-16.02 89.53,-6.07 399.86,167.19 540.96,263.53 162.23,111.34 402.3,88.83 546.42,168.34 144.4,79.68 98.4,243.47 268.4,336.5 170.2,93.19 394.5,-43.6 515.7,66.56 121.2,110.16 83.2,310.43 182.8,448.99 99.5,138.8 324.5,333.98 181.4,514.31 -143,180.52 -492.2,-120.92 -576.5,-136.92 -84.3,-16.01 -292.5,12.63 -392.2,-38.87 -99.2,-51.54 -148.3,-209.13 -141.2,-408.67" />
      <path id="path46" style="fill:#4d52ad;fill-opacity:1;fillRule:evenodd;stroke:none" d="m 9365.29,2519.76 c -105.66,-152.54 -154.69,-262.07 -259.88,-330.07 -81.28,-52.34 -160.18,-88.79 -134.26,-120.06 7.58,-9.05 24.27,-17.7 52.7,-26.09 0,0 61.59,-1.63 205.05,47.37 143.63,48.77 154.15,-123.93 333.07,-216.75 179.1,-93.04 243.03,63.95 368.4,135.35 125.33,71 122.33,-232.33 367.63,-250.83 245.4,-18.51 148.8,140.89 464.6,184.23 73.7,10.07 101.7,42.58 102.6,85.18 l 0.3,0.18 c 2,91.51 -121.9,230.82 -187.8,296.08 -96.4,95.1 -113.3,311.39 -301.7,264.42 -188.7,-46.93 -342.7,-272.34 -531.5,-150.86 -188.95,121.7 -373.58,234.38 -479.21,81.85" />
      <path id="path48" style="fill:#2a3e94;fill-opacity:1;fillRule:evenodd;stroke:none" d="m 8971.37,2069.8 -0.22,-0.17 c 7.58,-9.05 16.05,-26.48 52.7,-26.09 0,0 61.59,-1.63 205.05,47.37 143.63,48.77 154.15,-123.93 333.07,-216.75 179.1,-93.04 243.03,63.95 368.4,135.35 125.33,71 122.33,-232.33 367.63,-250.83 245.4,-18.51 148.8,140.89 464.6,184.23 73.7,10.07 101.7,42.58 102.6,85.18 0,0 -303.7,147.62 -626.4,215.73 -322.62,67.86 -1055.05,-36.88 -1267.43,-174.02" />
      <path id="path50" style="fill:#2a3e94;fill-opacity:1;fillRule:evenodd;stroke:none" d="m 9436.41,3688.11 c -72.44,-112.5 47.62,-252.93 -37.68,-402.28 -50.67,-88.37 -211.88,-22.21 -323.71,-149.46 -89.44,-101.55 -43.37,-358.18 5.41,-501.8 49.01,-143.47 -59.39,-286.17 -127.33,-403.2 -67.53,-117.08 -5.02,-136.08 -5.02,-136.08 19.78,-17.49 67.23,45.65 146.29,140.41 79.05,94.76 212.61,227.68 322.61,281.24 109.94,53.17 333.78,139.04 287.32,374.78 -46.46,235.72 190.65,169.05 364.6,313.09 116.6,96.59 2,266.48 148.2,359.46 146.2,92.98 144.4,254.23 80.3,386.21 -64.2,131.97 57.1,368.62 -113.1,426.15 -170.2,57.53 -278.66,-235.91 -358.38,-392.59 -79.54,-156.92 -267.64,-107.21 -389.51,-295.93" />
      <path id="path52" style="fill:#4d52ad;fill-opacity:1;fillRule:evenodd;stroke:none" d="m 9436.41,3688.11 c -72.44,-112.5 47.62,-252.93 -37.68,-402.28 -50.67,-88.37 -211.88,-22.21 -323.71,-149.46 -89.44,-101.55 -43.37,-358.18 5.41,-501.8 49.01,-143.47 -59.39,-286.17 -127.33,-403.2 -67.53,-117.08 -5.02,-136.08 -5.02,-136.08 73.89,93.01 604.47,873.78 833.82,1295.05 329.9,606 402.4,986.29 402.4,986.29 -170.2,57.53 -278.66,-235.91 -358.38,-392.59 -79.54,-156.92 -267.64,-107.21 -389.51,-295.93" />
      <path id="path54" style="fill:#2a3e94;fill-opacity:1;fillRule:evenodd;stroke:none" d="m 10059.6,2836.24 c -620.63,-459.25 -1101.88,-745.73 -1101.88,-745.73 17.63,-11.72 39.28,-16.72 59.94,-12.12 118.15,26.23 379.11,173.59 505.12,259.63 162.23,111.34 402.3,88.83 546.42,168.34 144.4,79.68 98.4,243.47 268.4,336.5 170.2,93.19 394.5,-43.6 515.7,66.56 121.2,110.16 83.2,310.43 182.8,448.99 99.5,138.8 324.5,333.98 181.4,514.31 0,0 -537.4,-577 -1157.9,-1036.48" />
      <path id="path56" style="fill:#c98acb;fill-opacity:1;fillRule:evenodd;stroke:none" d="M 8004.32,5753.66 H 3146.79 c -118.32,0 -214.22,95.9 -214.22,214.21 v 3115.85 c 0,118.31 95.9,214.22 214.22,214.22 h 4857.53 c 118.29,0 214.21,-95.91 214.21,-214.22 V 5967.87 c 0,-118.31 -95.92,-214.21 -214.21,-214.21" />
      <path id="path58" style="fill:#d89ed4;fill-opacity:1;fillRule:evenodd;stroke:none" d="m 3573.83,8917.98 c 51.52,0 93.27,-41.76 93.27,-93.27 0,-51.5 -41.75,-93.25 -93.27,-93.25 -51.49,0 -93.25,41.75 -93.25,93.25 0,51.51 41.76,93.27 93.25,93.27" />
      <path id="path60" style="fill:#d89ed4;fill-opacity:1;fillRule:evenodd;stroke:none" d="m 3913.88,8917.98 c 51.52,0 93.28,-41.76 93.28,-93.27 0,-51.5 -41.76,-93.25 -93.28,-93.25 -51.49,0 -93.24,41.75 -93.24,93.25 0,51.51 41.75,93.27 93.24,93.27" />
      <path id="path62" style="fill:#d89ed4;fill-opacity:1;fillRule:evenodd;stroke:none" d="m 4253.96,8917.98 c 51.5,0 93.25,-41.76 93.25,-93.27 0,-51.5 -41.75,-93.25 -93.25,-93.25 -51.51,0 -93.27,41.75 -93.27,93.25 0,51.51 41.76,93.27 93.27,93.27" />
      <path id="path64" style="fill:#d89ed4;fill-opacity:1;fillRule:evenodd;stroke:none" d="m 4104.02,8174.91 c 0,-194.42 -157.64,-352.06 -352.07,-352.06 -194.45,0 -352.07,157.64 -352.07,352.06 0,194.45 157.62,352.07 352.07,352.07 194.43,0 352.07,-157.62 352.07,-352.07" />
      <path id="path66" style="fill:#d89ed4;fill-opacity:1;fillRule:evenodd;stroke:none" d="m 3671.03,7441.65 h 1364.64 c 165.26,0 300.46,-135.2 300.46,-300.45 v -535.98 c 0,-165.25 -135.2,-300.45 -300.46,-300.45 H 3671.03 c -165.25,0 -300.46,135.2 -300.46,300.45 v 535.98 c 0,165.25 135.21,300.45 300.46,300.45" />
      <path id="path68" style="fill:#d89ed4;fill-opacity:1;fillRule:evenodd;stroke:none" d="M 4640.92,8401.48 H 7574.6 c 97.14,0 176.62,-79.48 176.62,-176.62 v -88.2 c 0,-97.15 -79.48,-176.62 -176.62,-176.62 H 4640.92 c -97.14,0 -176.62,79.47 -176.62,176.62 v 88.2 c 0,97.14 79.48,176.62 176.62,176.62" />
      <path id="path70" style="fill:#66caaa;fill-opacity:1;fillRule:evenodd;stroke:none" d="m 6005.34,7441.65 h 1364.64 c 165.26,0 300.46,-135.2 300.46,-300.45 v -535.98 c 0,-165.25 -135.2,-300.45 -300.46,-300.45 H 6005.34 c -165.25,0 -300.45,135.2 -300.45,300.45 v 535.98 c 0,165.25 135.2,300.45 300.45,300.45" />
      <path id="path72" style="fill:#2a3e94;fill-opacity:1;fillRule:evenodd;stroke:none" d="m 4188.03,8273.85 c 25.08,8.31 91.44,34.49 142.45,92.47 63.58,72.48 106.44,193.68 27.95,389.25 -204.96,-137.81 -261.9,-249.76 -263.26,-331.86 -22.58,37.85 -44.67,75.97 -66.27,114.35 18.97,28.47 45.95,78.35 48.25,134.9 1.98,44.18 -11.95,91.72 -55.52,139.2 -42.2,48.37 -115.26,95.78 -237.64,141.78 -41.18,-121.24 -46.6,-213.21 -33,-279.81 15.15,-66.02 50.69,-106.25 89.07,-130.43 51.06,-31.89 108.68,-35.03 142.1,-33.49 21.46,-38.11 43.39,-75.97 65.81,-113.55 -73.57,37.35 -202.49,43.29 -425.22,-53.77 148.55,-197.44 282.27,-217.63 376.92,-189.75 74.37,21.77 124.84,71.21 142.78,91.03 35.23,-54.76 71.48,-108.89 108.71,-162.38 -83.43,38.69 -224.57,41.28 -472.75,-86.08 44.64,-52.53 87.39,-93.07 127.86,-123.6 41.1,-30.12 81.3,-49.31 117.82,-61.52 73.47,-24.15 135.89,-17.95 186.77,0.55 50.87,18.53 90.29,49.27 117.19,75.09 17.29,16.63 29.39,31.25 35.83,39.56 44.31,-59.08 89.86,-117.27 136.6,-174.55 -93.2,38.48 -252.49,29.88 -517.53,-130.18 52.59,-55.2 104.94,-95.15 152.16,-125.53 47.73,-30.01 91.25,-49.82 133.5,-59.45 83.36,-20.2 151.59,-7.99 205.93,16.68 54.31,24.71 94.83,61.8 122.07,92.38 19.03,21.41 31.52,39.67 37.31,48.72 54.22,-61.56 109.84,-121.96 166.81,-181.12 -49.25,16.87 -113.34,21.2 -196.85,0.4 -94.35,-23.67 -211.39,-76.86 -360.26,-183.88 61.16,-57.05 122.16,-96.02 176.83,-124.81 55.11,-28.41 104.49,-46.2 150.77,-53.64 92.89,-14.58 166.07,4.89 222.87,36.69 56.79,31.82 97.35,75.88 124.11,111.61 20.44,27.39 32.73,49.95 37.37,59.03 59.38,-57 120.06,-112.73 182,-167.11 -55.51,15.06 -126.75,14.78 -217.99,-16.04 -98.47,-32.41 -221.49,-101.22 -372.71,-229.28 36.49,-27.58 70.98,-51.89 104.8,-71.83 34.34,-19.39 67.05,-35.44 98.17,-48.48 62.4,-25.92 117.76,-40.59 168.36,-44.74 101.95,-7.47 179.16,20.25 237.48,59.83 58.28,39.61 97.86,90.98 123.35,132.05 21.05,34.05 32.36,61.1 35.64,69.41 77.55,-62.6 156.85,-123.18 237.78,-181.61 -61.57,12.34 -139.32,6.12 -236.72,-36.95 -103.94,-46.56 -228.05,-131.04 -377.74,-283.34 20.9,-13.27 41.31,-25.54 61.22,-36.88 20.18,-10.98 40.28,-20.5 59.61,-29.45 38.79,-17.76 75.49,-32.05 110.18,-43.25 34.78,-11.06 67.15,-19.57 98.28,-24.35 31.35,-4.51 60.7,-6.37 88.16,-6.01 109.89,1.48 189.52,38.74 247.71,87.01 58.22,48.44 95.43,108.1 118.2,154.51 21.14,43.3 30.35,76.31 31.51,80.61 56.03,-36.83 112.74,-72.72 170.14,-107.54 8.78,15.86 18.05,31.43 27.75,46.75 -56.56,34.31 -112.44,69.67 -167.66,105.97 6.45,5.24 30.81,25.83 59.35,60.21 33.44,40.16 71.61,97.95 94.86,169.92 23.39,72.04 31.89,157.87 6.68,251.59 -6.31,23.42 -14.72,47.33 -25.57,71.66 -10.64,24.61 -22.9,50.72 -38.27,76.69 -15.27,26.11 -33.24,52.63 -54.24,79.51 -10.46,13.53 -21.91,26.83 -33.75,40.77 -11.55,14.3 -23.9,28.71 -37.09,43.23 -119.39,-176.03 -179.99,-316.16 -198.89,-424.07 -18.02,-99.99 -3.23,-175.02 25.23,-230.45 -79.09,57.18 -156.6,116.43 -232.44,177.63 8.09,5.48 31.41,22.11 59.01,49.32 34.4,33.82 75.29,84.12 103.21,148.48 27.97,64.3 43.14,142.58 27.28,231.11 -7.59,44.66 -21.47,93.59 -45.97,144.24 -12.17,25.43 -26.85,51.48 -44.35,78.13 -16.98,27.21 -35.86,56.05 -58.32,85.08 -125.49,-152.92 -192.32,-276.32 -220.7,-376.3 -24.47,-88.83 -17.83,-158.11 2.92,-211.09 -60.79,53.41 -120.35,108.14 -178.65,164.1 9.24,5.27 30.74,18.37 56.4,39.58 34.37,28.35 76.06,71.32 106.86,128.32 30.82,56.95 50.89,127.84 42.95,210.88 -3.82,41.68 -12.8,88.19 -31.69,137.04 -18.45,49.26 -47.37,100.4 -83.35,159 -126.52,-131.34 -198.35,-241.17 -230.63,-329.93 -28.51,-77.98 -28.57,-141.07 -14.78,-190.89 -56.15,58.34 -110.96,117.88 -164.41,178.57 9.65,4.57 29.31,14.64 52.86,30.95 33.62,23.23 75.08,59.23 107.64,108.99 32.57,49.73 56.34,113.11 55.28,190.1 -1.1,38.02 -5.92,81.51 -19.49,128.13 -13.09,47 -35.82,96.48 -65.97,152.28 -233.68,-206.72 -279.03,-354.67 -262.23,-454.87 -46.35,56.8 -91.52,114.49 -135.45,173.07 9.69,3.8 27,11.29 47.69,23.35 32.12,18.64 72.3,48.33 105.43,91.28 33.14,42.93 59.33,99.04 63.97,169.66 2.54,35.47 -1.23,73.91 -10.63,117.39 -8.78,43.93 -24.57,91.92 -49.41,144.48 -219.32,-168.42 -275.64,-300.21 -268.83,-391.43 -36.84,52.95 -72.72,106.51 -107.57,160.72" />
      <path id="path74" style="fill:#c98acb;fill-opacity:1;fillRule:evenodd;stroke:none" d="m 9392.92,9009.34 h -1925.9 c -316.57,0 -573.19,256.63 -573.19,573.2 v 448.26 c 0,316.6 256.62,573.2 573.19,573.2 h 40.82 l 170.46,170.5 170.46,-170.5 h 1544.16 c 316.59,0 573.2,-256.6 573.2,-573.2 v -448.26 c 0,-316.57 -256.61,-573.2 -573.2,-573.2" />
      <path id="path76" style="fill:#fcfeff;fill-opacity:1;fillRule:evenodd;stroke:none" d="M 8839.8,1581.2 H 5360.19 c -404.99,0 -733.29,328.27 -733.29,733.25 v 7039.6 c 0,404.97 328.3,733.25 733.29,733.25 H 8839.8 c 404.99,0 733.29,-328.28 733.29,-733.25 v -7039.6 c 0,-404.98 -328.3,-733.25 -733.29,-733.25" />
      <path id="path78" style="fill:#c4dce8;fill-opacity:1;fillRule:evenodd;stroke:none" d="m 9324.05,9354.05 v -7039.6 c 0,-267.02 -217.22,-484.24 -484.25,-484.24 H 5360.19 c -267.03,0 -484.25,217.22 -484.25,484.24 v 7039.6 c 0,7.74 0.28,15.77 0.56,23.51 v 2.21 c 13.56,255.14 225.24,458.52 483.69,458.52 h 481.94 v -71.48 c 0,-159.2 129.05,-288.24 288.24,-288.24 h 1939.25 c 159.19,0 288.24,129.04 288.24,288.24 v 71.48 h 481.94 c 258.45,0 470.13,-203.38 483.69,-458.52 v -2.21 c 0.28,-7.74 0.56,-15.77 0.56,-23.51" />
      <path id="path80" style="fill:#fcfeff;fill-opacity:1;fillRule:evenodd;stroke:none" d="m 9621.65,6752.96 h -48.56 V 7859.8 h 48.56 c 20.93,0 37.91,-16.97 37.91,-37.91 V 6790.87 c 0,-20.95 -16.98,-37.91 -37.91,-37.91" />
      <path id="path82" style="fill:#fcfeff;fill-opacity:1;fillRule:evenodd;stroke:none" d="m 4637.28,6566.17 h -48.43 c -26.74,0 -48.42,21.68 -48.42,48.43 v 543.04 c 0,26.75 21.68,48.43 48.42,48.43 h 48.43 v -639.9" />
      <path id="path84" style="fill:#fcfeff;fill-opacity:1;fillRule:evenodd;stroke:none" d="m 4637.28,7444.73 h -48.43 c -26.74,0 -48.42,21.68 -48.42,48.43 v 543.04 c 0,26.75 21.68,48.43 48.42,48.43 h 48.43 v -639.9" />
      <path id="path86" style="fill:#fcfeff;fill-opacity:1;fillRule:evenodd;stroke:none" d="m 4637.28,8752.19 h -48.43 c -26.74,0 -48.42,21.68 -48.42,48.43 v 255.96 c 0,26.75 21.68,48.43 48.42,48.43 h 48.43 v -352.82" />
      <path id="path88" style="fill:#fcfeff;fill-opacity:1;fillRule:evenodd;stroke:none" d="m 4637.28,8325.6 h -48.43 c -26.74,0 -48.42,21.68 -48.42,48.42 v 255.96 c 0,26.75 21.68,48.43 48.42,48.43 h 48.43 V 8325.6" />
      <path id="path90" style="fill:none;stroke:#1a2c3d;strokeWidth:239.9980011;stroke-linecap:round;stroke-linejoin:round;stroke-miterlimit:10;stroke-dasharray:none;stroke-opacity:1" d="M 6100.6,2192.85 H 8099.4" />
      <path id="path92" style="fill:#b0d6e3;fill-opacity:1;fillRule:evenodd;stroke:none" d="m 4875.94,7043.57 c 347.78,-205.9 368.77,2405.18 1927.03,174.7 327.84,-469.28 803.24,327.68 1438.12,99.61 568.39,-204.19 603,-1052.45 1082.96,-1543.95 V 2314.45 c 0,-267.02 -217.22,-484.24 -484.25,-484.24 H 5360.19 c -267.03,0 -484.25,217.22 -484.25,484.24 v 4729.12" />
      <path id="path94" style="fill:#9ed3e4;fill-opacity:1;fillRule:evenodd;stroke:none" d="m 4875.94,6266.42 c 247.74,293.18 398.74,794 741.44,676.55 893.77,-306.35 494.55,-2744.42 1482.62,-2547.62 347.24,69.17 572.84,1756.75 1273.46,1664.54 359.85,-47.35 528.03,-659.61 950.59,-1296.99 V 2314.45 c 0,-267.02 -217.22,-484.24 -484.25,-484.24 H 5360.19 c -267.03,0 -484.25,217.22 -484.25,484.24 v 3951.97" />
      <path id="path96" style="fill:#7d80c8;fill-opacity:1;fillRule:evenodd;stroke:none" d="M 11662.8,7930.05 H 6156.65 c -370.03,0 -670,-299.97 -670,-670 v -524 c 0,-370.04 299.97,-670.01 670,-670.01 h 47.72 l 199.26,-199.25 199.24,199.25 h 5059.93 c 370.1,0 670,299.97 670,670.01 v 524 c 0,370.03 -299.9,670 -670,670" />
      <path id="path98" style="fill:#4d52ad;fill-opacity:1;fillRule:evenodd;stroke:none" d="m 2616.66,5032.08 h 5506.17 c 370.02,0 670,-299.97 670,-670 v -524.01 c 0,-370.03 -299.98,-670 -670,-670 h -47.72 l -199.26,-199.25 -199.24,199.25 H 2616.66 c -370.05,0 -670.01,299.97 -670.01,670 v 524.01 c 0,370.03 299.96,670 670.01,670" />
      <path id="path100" style="fill:#ffffff;fill-opacity:1;fillRule:evenodd;stroke:none" d="m 7286.77,2275.73 c 0,45.78 37.11,82.88 82.88,82.88 45.78,0 82.88,-37.1 82.88,-82.88 0,-45.77 -37.1,-82.88 -82.88,-82.88 -45.77,0 -82.88,37.11 -82.88,82.88" />
      <path id="path102" style="fill:#ffffff;fill-opacity:1;fillRule:evenodd;stroke:none" d="m 7017.11,2275.73 c 0,45.78 37.11,82.88 82.89,82.88 45.76,0 82.87,-37.1 82.87,-82.88 0,-45.77 -37.11,-82.88 -82.87,-82.88 -45.78,0 -82.89,37.11 -82.89,82.88" />
      <path id="path104" style="fill:#ffffff;fill-opacity:1;fillRule:evenodd;stroke:none" d="m 6747.46,2275.73 c 0,45.78 37.1,82.88 82.88,82.88 45.77,0 82.88,-37.1 82.88,-82.88 0,-45.77 -37.11,-82.88 -82.88,-82.88 -45.78,0 -82.88,37.11 -82.88,82.88" />
      <path id="path106" style="fill:#2a3e94;fill-opacity:1;fillRule:evenodd;stroke:none" d="m 10217.9,8133.56 c -71.6,30.04 -102.4,116.74 -106,194.36 -3.6,77.61 43.4,139.38 87.6,203.33 46.7,67.65 32.5,133.32 3,163.12 -43,43.53 -62.6,104.86 -45,163.43 17.6,58.61 67,103.96 127.7,111.53 62.9,7.9 93.7,41.87 110,104.07 31.5,119.81 160.3,182.26 280.9,154.1 52.6,-12.26 104.6,9.93 150.6,38.23 60.6,37.32 138.7,31.63 201.4,-2.06 62.8,-33.66 108.5,-95.65 113.1,-166.71 3.5,-55.2 43.5,-98.47 98.5,-103.98 55,-5.51 102.2,-42.12 127.2,-91.51 24.9,-49.39 22.2,-106.84 -1.8,-156.67 -22.6,-46.99 -14,-82.45 14.3,-109.31 35.7,-33.77 27.1,-72.67 -20.3,-111.19 24.7,-18.18 40.5,-46.03 43.4,-76.53 3,-30.48 -7.2,-60.86 -27.9,-83.39 -19.9,-21.48 -29.9,-50.31 -27.5,-79.46 2.4,-29.15 18.8,-53.79 40,-73.95 81.3,-77.28 100,-203.2 43.4,-300.08 -23.7,-40.53 -67.7,-65.05 -113.9,-73.26 -46.3,-8.2 -92.2,5.09 -132.2,29.63 -78.9,48.37 -184.1,30.49 -243.1,-40.84 -55.2,-66.87 -148.9,-81.36 -221.8,-34.31 -48.8,31.52 -105.9,8.7 -150.6,-28.35 -45.3,-37.53 -115.5,-20.87 -160.3,17.31 -44.8,38.16 -59.6,99.2 -42.5,155.5 13.9,45.83 1.9,95.71 -26.9,133.97 -28.8,38.29 -77.1,44.52 -121.3,63.02" />
      <path id="path108" style="fill:#fcd1ea;fill-opacity:1;fillRule:evenodd;stroke:none" d="m 10639.5,8335.65 h 259.7 v -210.18 h 234.3 V 7904.6 h -710.8 v 220.87 h 216.8 v 210.18" />
      <path id="path110" style="fill:#9a1b70;fill-opacity:1;fillRule:evenodd;stroke:none" d="m 9904.76,6756.21 c 849.34,-111 1316.04,-150.26 1469.74,-165.98 0,0 123.2,50.86 289.2,157.95 204.2,142.06 268.4,277.7 203.5,449.76 0,0 -63.7,214.11 -190.1,642.53 -59.7,201.99 -152.2,300.23 -278.5,294.49 0,0 -123.3,2.82 -369.9,2.79 -43,-108.7 -148.4,-181.72 -267.3,-181.72 -117.7,0 -222.2,71.51 -266,178.3 -83.2,-1.11 -124.8,-2.05 -124.8,-2.05 -330.9,-13.29 -501.11,-129.66 -559.55,-337.33 -111.18,-395.1 -188.78,-586.56 -184.72,-588.98 l -301.2,363.46 c -93.96,-110.23 -223.39,-183.63 -365.29,-208.1 395.95,-660.95 710.94,-862.71 944.92,-605.12" />
      <path id="path112" style="fill:#7b1f50;fill-opacity:1;fillRule:evenodd;stroke:none" d="m 9904.76,6756.21 c 32.72,-4.28 64.82,-8.45 96.44,-12.51 16.5,134.32 18.3,452.65 5.5,955.04 L 9673.87,6648.33 c 84.16,-4.87 161.12,31.07 230.89,107.88" />
      <path id="path114" style="fill:#fcd1ea;fill-opacity:1;fillRule:evenodd;stroke:none" d="m 9404.56,7839.62 c -23.79,49.04 -46.55,98.58 -68.27,148.58 26.57,12.4 57.76,9.61 81.72,-7.29 23.96,-16.9 37.03,-45.35 34.25,-74.54 -2.77,-29.19 -20.98,-54.66 -47.7,-66.75" />
      <path id="path116" style="fill:#9a1b70;fill-opacity:1;fillRule:evenodd;stroke:none" d="m 10010.5,7869.92 h 1467.1 L 11491,6394.8 H 9756.21 l 254.29,1475.12" />
      <path id="path118" style="fill:#7b1f50;fill-opacity:1;fillRule:evenodd;stroke:none" d="m 11488.8,6645.06 2.2,-250.26 h -596.2 c 32.2,57.36 75.6,109.41 129.2,152.75 34.8,-58.9 52.2,-88.35 52.2,-88.35 l 412.6,185.86" />
      <path id="path120" style="fill:#7b1f50;fill-opacity:1;fillRule:evenodd;stroke:none" d="m 11249,7538.15 c 9.7,-280.34 -107.2,-534.67 -350.7,-762.99 228.2,154.83 404.9,279.77 530.1,374.8 -119.6,258.79 -179.4,388.19 -179.4,388.19" />
      <path id="path122" style="fill:#2b1e39;fill-opacity:1;fillRule:evenodd;stroke:none" d="m 10739.9,7212.56 h 324 v 414.96 h -324 v -414.96" />
      <path id="path124" style="fill:#2a3e94;fill-opacity:1;fillRule:evenodd;stroke:none" d="m 8869.86,8190.43 304.48,132.27 c 16.2,7.04 35.22,-0.45 42.26,-16.65 l 302.95,-697.36 c 7.04,-16.21 -0.46,-35.23 -16.67,-42.27 l -304.47,-132.28 c -16.21,-7.03 -35.22,0.47 -42.27,16.67 l -302.94,697.36 c -7.04,16.21 0.45,35.22 16.66,42.26" />
      <path id="path126" style="fill:#fcd1ea;fill-opacity:1;fillRule:evenodd;stroke:none" d="m 8998.97,7345.68 c 84.07,22.89 162.48,63 230.24,117.78 28.91,21.51 43.36,57.38 37.44,92.93 -5.92,35.53 -31.22,64.77 -65.55,75.75 12,57.65 -15.93,116.23 -68.26,143.22 35.8,22.11 49.11,67.69 30.85,105.59 -18.27,37.91 -62.2,55.89 -101.8,41.67 0,0 -57.12,-37.49 -171.35,-112.45 -64.78,-53.35 -76.38,-114.03 -34.79,-182.05 95.47,-188.3 143.22,-282.44 143.22,-282.44" />
      <path id="path128" style="fill:#fcd1ea;fill-opacity:1;fillRule:evenodd;stroke:none" d="m 10909.6,6776.4 c 40,-76.23 79.5,-152.69 118.6,-229.38 -14.9,-155.89 -127.4,-286.34 -282.3,-328.4 -28.9,-7.83 -59.4,-7.28 -83.7,10.22 -24.2,17.51 -37.9,46.25 -36.1,76.13 -31.7,0.55 -60.6,18.65 -74.9,47 -14.3,28.37 -11.8,62.32 6.7,88.22 -26.4,-1.7 -52.8,2.88 -77,13.37 -25.8,16.01 -38.8,46.45 -32.5,76.14 6.3,29.68 30.5,52.24 60.6,56.4 189.4,-24.55 279.1,183.73 400.6,190.3" />
      <path id="path130" style="fill:#f7b0db;fill-opacity:1;fillRule:evenodd;stroke:none" d="m 10639.5,8335.65 h 259.7 v -163.88 c -14.6,-3.02 -29.8,-4.62 -45.3,-4.62 h -115.1 c -35.6,0 -69.3,8.37 -99.3,23.23 v 145.27" />
      <path id="path132" style="fill:#fcd1ea;fill-opacity:1;fillRule:evenodd;stroke:none" d="m 11030.6,8649.41 v 0 c 17.7,11.6 38.8,18.35 61.6,18.35 62.1,0 112.4,-50.34 112.4,-112.45 0,-62.1 -50.3,-112.44 -112.4,-112.44 -22.8,0 -44,6.76 -61.7,18.38 -1.6,-122.29 -102.1,-221.82 -224.8,-221.82 h -115.1 c -123.7,0 -224.9,101.19 -224.9,224.88 v 302.52 c 0,27.89 5.2,54.64 14.6,79.34 80.9,-12.51 164.4,14.89 222.3,75.93 115.4,-260.57 303.1,-276.48 328,-272.69" />
      <path id="path134" style="fill:#192031;fill-opacity:1;fillRule:evenodd;stroke:none" d="m 10818,8594.6 c 13.3,0 24.1,15.02 24.1,33.45 0,18.43 -10.8,33.48 -24.1,33.48 -13.2,0 -24.1,-15.05 -24.1,-33.48 0,-18.43 10.9,-33.45 24.1,-33.45" />
      <path id="path136" style="fill:#192031;fill-opacity:1;fillRule:evenodd;stroke:none" d="m 10586.4,8594.6 c 13.3,0 24.2,15.02 24.2,33.45 0,18.43 -10.9,33.48 -24.2,33.48 -13.2,0 -24,-15.05 -24,-33.48 0,-18.43 10.8,-33.45 24,-33.45" />
      <path id="path138" style="fill:#192031;fill-opacity:1;fillRule:evenodd;stroke:none" d="m 10545.6,8742.5 c -6.2,23.01 6.8,46.83 29.5,54.16 22.7,7.32 47.1,-4.43 55.5,-26.73 -31.1,5.1 -62.7,-5.11 -85,-27.43" />
      <path id="path140" style="fill:#192031;fill-opacity:1;fillRule:evenodd;stroke:none" d="m 10853.5,8742.5 c 6.2,23.01 -6.8,46.83 -29.4,54.16 -22.7,7.32 -47.1,-4.43 -55.6,-26.73 31.1,5.1 62.8,-5.11 85,-27.43" />
      <path id="path142" style="fill:#192031;fill-opacity:1;fillRule:evenodd;stroke:none" d="m 10650,8558.11 c -2.8,13.29 7,32.11 17.3,40.92 10.4,8.8 24.3,12.23 37.6,9.27 -33,-24.17 -41.2,-44.31 -26.1,-61.57 11.6,-13.23 16.8,-20.41 16.8,-20.41 -21.5,0.1 -40.1,6.61 -45.6,31.79" />
      <path id="path144" style="fill:#0e0f0e;fill-opacity:1;fillRule:evenodd;stroke:none" d="m 10777.5,8513.93 c -13.4,-7.17 -20.5,-21.94 -18.3,-36.44 -41.8,-20.41 -91.8,-16.93 -130.6,10.01 15,-25.48 40.7,-42.73 70,-46.91 24.9,-3.56 50.1,2.76 70.3,17.3 8.9,-9.02 22.2,-12.9 35,-9.21 -18.2,16.61 -27.9,40.61 -26.4,65.25" />
      <path id="path146" style="fill:#192031;fill-opacity:1;fillRule:evenodd;stroke:none" d="m 11101.8,8600.28 c 4.1,-9.27 6.9,-18.97 8.5,-28.82 -23.8,-5.95 -48.3,-8.63 -72.8,-7.99 23.8,-9.13 48.8,-14.62 74.2,-16.3 -0.6,-11.95 -3,-23.84 -7.3,-35.24 17,8.51 27.5,26.07 26.9,45.03 -0.6,18.96 -12.1,35.86 -29.5,43.32" />
      <path id="path148" style="fill:#ffffff;fill-opacity:1;fillRule:evenodd;stroke:none" d="m 10521.4,8301.73 c -49.9,49.67 -75,140.88 -75.2,273.61 182.8,-7.19 365.7,-6.02 548.4,3.51 1.5,-162.81 2.3,-244.22 2.3,-244.22 -51.4,-78.12 -136.3,-127.78 -229.6,-134.24 -93.3,-6.44 -184.3,31.03 -245.9,101.34" />
      <path id="path150" style="fill:#ffffff;fill-opacity:1;fillRule:evenodd;stroke:none" d="m 10924.7,8550.68 c 16.8,-32.23 24,-45.61 24.6,-45.95 0,0 45.5,72.33 118.7,160.43 0,0 -21.5,-2.57 -37.4,-15.75 0,0 -27.6,-18.09 -105.9,-98.73" />
      <path id="path152" style="fill:#ffffff;fill-opacity:1;fillRule:evenodd;stroke:none" d="m 10953.6,8396.66 c -1,16.8 2.9,33.5 11.1,48.15 47.4,9.78 65.8,16.44 65.8,16.44 1.5,-28.19 -4.8,-43.36 -4.8,-43.36 -46.2,-13.69 -72.1,-21.23 -72.1,-21.23" />
      <path id="path154" style="fill:#7478c4;fill-opacity:1;fillRule:evenodd;stroke:none" d="m 6050.5,7483.65 h 1941.6 c 34.1,0 61.74,-27.64 61.74,-61.74 0,-34.1 -27.64,-61.74 -61.74,-61.74 H 6050.5 c -34.1,0 -61.74,27.64 -61.74,61.74 0,34.1 27.64,61.74 61.74,61.74" />
      <path id="path156" style="fill:#7478c4;fill-opacity:1;fillRule:evenodd;stroke:none" d="m 6050.5,7179.74 h 2294.1 c 34.1,0 61.74,-27.63 61.74,-61.73 0,-34.1 -27.64,-61.74 -61.74,-61.74 H 6050.5 c -34.1,0 -61.74,27.64 -61.74,61.74 0,34.1 27.64,61.73 61.74,61.73" />
      <path id="path158" style="fill:#7478c4;fill-opacity:1;fillRule:evenodd;stroke:none" d="m 6050.5,6875.85 h 2684.1 c 34.1,0 61.74,-27.64 61.74,-61.74 v -0.01 c 0,-34.1 -27.64,-61.74 -61.74,-61.74 H 6050.5 c -34.1,0 -61.74,27.64 -61.74,61.74 v 0.01 c 0,34.1 27.64,61.74 61.74,61.74" />
      <path id="path160" style="fill:#7478c4;fill-opacity:1;fillRule:evenodd;stroke:none" d="m 6050.5,6560.32 h 1286.9 c 34.1,0 61.73,-27.65 61.73,-61.74 v -0.01 c 0,-34.1 -27.63,-61.74 -61.73,-61.74 H 6050.5 c -34.1,0 -61.74,27.64 -61.74,61.74 v 0.01 c 0,34.09 27.64,61.74 61.74,61.74" />
      <path id="path162" style="fill:#4a4da9;fill-opacity:1;fillRule:evenodd;stroke:none" d="M 8186.58,4658.85 H 6244.97 c -34.1,0 -61.73,-27.63 -61.73,-61.73 0,-34.11 27.63,-61.74 61.73,-61.74 h 1941.61 c 34.1,0 61.73,27.63 61.73,61.74 0,34.1 -27.63,61.73 -61.73,61.73" />
      <path id="path164" style="fill:#4a4da9;fill-opacity:1;fillRule:evenodd;stroke:none" d="M 8186.58,4354.95 H 5892.47 c -34.1,0 -61.73,-27.64 -61.73,-61.74 0,-34.09 27.63,-61.74 61.73,-61.74 h 2294.11 c 34.1,0 61.73,27.65 61.73,61.74 0,34.1 -27.63,61.74 -61.73,61.74" />
      <path id="path166" style="fill:#4a4da9;fill-opacity:1;fillRule:evenodd;stroke:none" d="M 8186.58,4051.05 H 5502.47 c -34.1,0 -61.73,-27.63 -61.73,-61.74 v 0 c 0,-34.1 27.63,-61.74 61.73,-61.74 h 2684.11 c 34.1,0 61.73,27.64 61.73,61.74 v 0 c 0,34.11 -27.63,61.74 -61.73,61.74" />
      <path id="path168" style="fill:#4a4da9;fill-opacity:1;fillRule:evenodd;stroke:none" d="M 8186.58,3735.52 H 6899.69 c -34.11,0 -61.75,-27.64 -61.75,-61.73 v -0.01 c 0,-34.1 27.64,-61.74 61.75,-61.74 h 1286.89 c 34.1,0 61.73,27.64 61.73,61.74 v 0.01 c 0,34.09 -27.63,61.73 -61.73,61.73" />
      <path id="path170" style="fill:#192031;fill-opacity:1;fillRule:evenodd;stroke:none" d="m 3261.39,5600.14 c 46.8,127.24 142.83,228.3 264.75,278.6 121.91,50.3 258.57,45.23 376.72,-13.96 39.28,-1.73 75.63,21.52 91.84,58.69 16.21,37.22 8.99,80.89 -18.2,110.38 105.73,21.45 179.61,121.18 172.41,232.75 -7.18,111.59 -93.2,200.23 -200.73,206.85 -8.99,91.48 -74.44,166.14 -161.31,184.03 -86.87,17.91 -174.8,-25.13 -216.78,-106.11 -50.74,90.59 -155.1,132.65 -251.41,101.31 -96.31,-31.34 -158.91,-127.72 -150.75,-232.17 -50.18,0.44 -96.32,-28.45 -119.37,-74.74 -23.03,-46.28 -19.05,-102.06 10.32,-144.32 -78.48,-31.51 -125.19,-115.54 -112.24,-201.84 12.96,-86.33 82.08,-151.62 166.06,-156.87 31.14,-109.77 46.73,-164.68 46.73,-164.68 -16.59,-18.64 -21.45,-45.51 -12.48,-69.13 8.97,-23.64 30.18,-39.83 54.57,-41.7 24.38,-1.87 47.65,10.91 59.87,32.91" />
      <path id="path172" style="fill:#fcd1ea;fill-opacity:1;fillRule:evenodd;stroke:none" d="m 3636.56,4938.57 h -313.55 v 563.67 h 313.55 v -563.67" />
      <path id="path174" style="fill:#f7b0db;fill-opacity:1;fillRule:evenodd;stroke:none" d="M 3636.55,5502.24 H 3323 v -128.82 c 39.49,-4.93 81.72,-5.39 121.27,-2.5 74.28,5.44 139.15,22.77 192.28,51.47 v 79.85" />
      <path id="path176" style="fill:#fcd1ea;fill-opacity:1;fillRule:evenodd;stroke:none" d="m 3189.4,6097.04 v -95.28 c -23.94,17.85 -53.65,28.42 -85.82,28.42 -79.38,0 -143.71,-64.33 -143.71,-143.71 0,-79.37 64.33,-143.72 143.71,-143.72 32.17,0 61.88,10.57 85.82,28.42 v -90.86 c 0,-138.49 113.31,-251.79 251.8,-251.79 h 262.93 c 102.96,0 187.18,84.21 187.18,187.17 v 481.35 H 3189.4" />
      <path id="path178" style="fill:#692980;fill-opacity:1;fillRule:evenodd;stroke:none" d="M 4384.77,3429.17 H 2673.5 v 409.95 c -144.3,4.09 -217.38,76.62 -225.11,234.14 -16.98,346.06 -5.04,608.17 40.11,786.53 118.81,213.23 346.13,358.53 641.75,388.83 34.54,24.17 103.56,77.19 159.81,117.19 0,0 45.67,-40.86 137.03,-122.56 l -1.92,-0.99 55.39,-48.03 c 0,0 18.2,-50.89 54.59,-152.65 0,0 8.55,53.49 25.62,160.45 32.89,33.34 69.93,82.16 108.08,116.98 70.57,-51.25 94.7,-74.63 94.7,-74.63 205.12,-33.35 553.56,-63.98 661.35,-360.13 126.43,-347.45 147.05,-534.78 147.05,-534.78 150.04,251.04 225.05,376.56 225.05,376.56 267.39,-147.06 401.08,-220.59 401.08,-220.59 -255.51,-549.62 -383.28,-824.45 -383.28,-824.45 -37.2,-64.6 -100.84,-109.72 -174.1,-123.41 -112.28,-20.98 -209.94,30.74 -271.51,104.26 l 15.58,-232.67" />
      <path id="path180" style="fill:#2b1e39;fill-opacity:1;fillRule:evenodd;stroke:none" d="m 3524.84,5070.44 v 0 l 10.31,-28.86 4.72,29.44 14.21,0.55 21.32,-409.12 h -47.45 l -21.21,407.27 z m 114.84,-1641.27 h -47.43 l -27.5,527.37 h 47.45 l 27.48,-527.37 v 0" />
      <path id="path182" style="fill:#2b1e39;fill-opacity:1;fillRule:evenodd;stroke:none" d="m 3844.46,4702.56 0.25,-0.93 c 26.9,-67.29 53.85,-134.65 74.32,-209.14 20.34,-74.02 35.73,-160.95 51.1,-247.89 l 0.07,-0.56 93.6,16.71 -0.07,0.36 c -15.49,87.43 -30.98,174.88 -53.34,256.26 -22.27,81.04 -49.98,150.31 -77.66,219.54 l -33.14,-13.28 -55.13,-21.07" />
      <path id="path184" style="fill:#2b1e39;fill-opacity:1;fillRule:evenodd;stroke:none" d="m 3557.37,5180.61 v 0 l 3.4,21.42 c 32.89,33.34 69.93,82.16 108.08,116.98 70.57,-51.25 94.7,-74.63 94.7,-74.63 l 2.28,-0.36 c -7.4,-69.07 -17.57,-155.12 -24.54,-207.68 -9.51,-71.6 -13.06,-81.1 -15.45,-88.53 -2.37,-7.43 -3.57,-12.76 -35.35,34.17 -31.26,46.16 -92.11,142.88 -133.12,198.63 z m -425.93,68.85 c 34.92,24.54 103,76.8 158.62,116.35 0,0 45.67,-40.86 137.03,-122.56 l -1.92,-0.99 55.39,-48.03 1.57,-4.43 c -4.3,-4.91 -9.05,-10.18 -14.17,-15.9 -41,-45.77 -106.96,-120.03 -143.21,-160.43 -36.24,-40.41 -42.78,-46.93 -45.76,-46.93 -2.97,0 -2.37,6.52 -35.94,69.81 -28.24,53.23 -80.64,146.58 -111.61,213.11 v 0" />
      <path id="path186" style="fill:#2b1e39;fill-opacity:1;fillRule:evenodd;stroke:none" d="m 3722.13,3429.17 v 0 l -15.36,4.88 c -89.11,28.52 -260.25,85.58 -339.87,115.28 -79.62,29.71 -67.74,32.08 64.78,104.57 132.51,72.48 385.62,215.1 549.03,314.93 163.41,99.82 237.09,156.86 273.93,180.04 36.84,23.17 36.84,12.47 46.33,-52.88 9.52,-65.37 28.53,-185.38 42.2,-270.95 12.68,-79.42 20.77,-129.14 38,-176.73 40.24,-43.04 93.38,-76.77 154.56,-89.7 -5.21,12.49 -10.76,27.08 -16.68,44.21 -36.23,104.57 -87.34,303.03 -139.94,489.9 -52.57,186.89 -106.65,362.16 -138.44,456.35 -31.79,94.18 -41.29,107.25 -47.52,109.63 -6.25,2.37 -9.22,-5.96 -2.68,-37.75 6.53,-31.78 22.57,-87.05 30.89,-117.63 8.32,-30.61 8.92,-36.55 12.17,-52.59 3.28,-16.05 9.23,-42.2 10.41,-55.26 1.19,-13.07 -2.38,-13.07 -8.92,-15.45 -6.54,-2.39 -16.04,-7.13 -169.35,-77.85 -153.3,-70.71 -450.39,-207.37 -693.42,-293.53 -243.03,-86.17 -431.99,-121.82 -549.04,-140.82 -117.07,-19.01 -162.23,-21.41 -184.81,-26.14 l -0.09,-0.02 c 11.23,-1.34 22.94,-2.19 35.19,-2.54 v -409.95 z m 175.99,1272.9 c -159.25,-52.3 -501.53,-159.24 -678,-213.31 -176.47,-54.08 -187.16,-55.28 -194.89,-48.14 -7.72,7.14 -12.47,22.58 -8.32,79.04 4.16,56.44 17.24,153.89 23.18,193.7 5.94,39.81 4.74,21.99 13.65,1.78 8.91,-20.2 27.95,-42.78 188.96,-37.42 161.05,5.34 464.09,38.62 627.5,56.45 163.39,17.81 187.15,20.2 27.92,-32.1 v 0" />
      <path id="path188" style="fill:#fcd1ea;fill-opacity:1;fillRule:evenodd;stroke:none" d="m 4671.04,4671.53 c -160.67,147.06 -370.43,198.3 -574.89,99.15 61.57,-92.39 104,-196.18 124.79,-305.25 113.65,26.72 170.47,40.09 170.47,40.09 20.58,5.41 37.39,20.27 45.3,40.05 7.91,19.77 5.97,42.11 -5.2,60.23 -23.04,53.48 -34.54,80.21 -34.54,80.21 80.51,-10.92 154.28,-46.98 218.37,-96.92 20.91,-16.29 52.17,-7.23 67.02,14.75 14.84,21.98 9.88,51.73 -11.32,67.69" />
      <path id="path190" style="fill:#192031;fill-opacity:1;fillRule:evenodd;stroke:none" d="m 3695.95,5758.64 c 0.34,-17.16 -7.36,-33.27 -20.32,-42.68 -12.99,-9.34 -29.42,-10.67 -43.47,-3.44 41.18,28 42.63,63.04 4.35,105.14 38.65,-11.46 58.45,-31.15 59.44,-59.02" />
      <path id="path192" style="fill:#192031;fill-opacity:1;fillRule:evenodd;stroke:none" d="m 3763.21,5827.19 c -15.96,0 -28.98,18.77 -28.98,41.79 0,23.01 13.02,41.77 28.98,41.77 15.95,0 28.97,-18.76 28.97,-41.77 0,-23.02 -13.02,-41.79 -28.97,-41.79" />
      <path id="path194" style="fill:#192031;fill-opacity:1;fillRule:evenodd;stroke:none" d="m 3539.92,5827.19 c -15.96,0 -28.98,18.77 -28.98,41.79 0,23.01 13.02,41.77 28.98,41.77 15.95,0 28.96,-18.76 28.96,-41.77 0,-23.02 -13.01,-41.79 -28.96,-41.79" />
      <path id="path196" style="fill:#192031;fill-opacity:1;fillRule:evenodd;stroke:none" d="m 3627.56,5598.01 c -43.97,4.62 -78.9,38.52 -78.75,82.73 16.13,-26.65 42.85,-45.18 73.46,-50.96 30.62,-5.75 62.24,1.79 86.96,20.76 -3.33,-18.08 -14.01,-34 -29.47,-43.93 -15.48,-9.96 -33.93,-10.51 -52.2,-8.6" />
      <path id="path198" style="fill:#192031;fill-opacity:1;fillRule:evenodd;stroke:none" d="m 5389.18,5095.49 -331.01,165.06 c -32.92,16.43 -73.25,2.92 -89.66,-29.99 l -391.79,-785.65 c -16.41,-32.89 -2.93,-73.25 29.99,-89.66 l 331,-165.06 c 32.93,-16.4 73.26,-2.93 89.67,29.98 l 391.79,785.67 c 16.41,32.91 2.92,73.23 -29.99,89.65" />
      <path id="path200" style="fill:#fcd1ea;fill-opacity:1;fillRule:evenodd;stroke:none" d="m 5200.23,4807.48 c 82.49,-51.11 111.42,-96.82 100.27,-151.53 -32.29,-158.43 -93.47,-309.54 -196.08,-434.5 -108.44,69.81 -162.67,104.72 -162.67,104.72 -37.92,19.72 -28.26,75.43 28.97,167.11 -62.78,51.31 -34.11,133.58 75.75,256.25 60.8,67.88 106.54,87.19 153.76,57.95" />
      <path id="path202" style="fill:#192031;fill-opacity:1;fillRule:evenodd;stroke:none" d="m 3072.58,5957.7 c -0.63,-17.16 -1.02,-34.32 -1.16,-51.49 l 91.93,-7.57 c -30.55,-7.59 -61.21,-14.78 -91.97,-21.55 0.15,-18.07 0.55,-36.15 1.2,-54.19 -17.92,17.91 -28,42.06 -28,67.41 0,25.33 10.08,49.47 28,67.39" />
      <path id="path204" style="fill:#192031;fill-opacity:1;fillRule:evenodd;stroke:none" d="m 3812.99,5949.55 c -1.57,25.66 -22.86,45.67 -48.57,45.67 -25.73,0 -47.01,-20.01 -48.58,-45.67 30.45,15.81 66.7,15.81 97.15,0" />
      <path id="path206" style="fill:#192031;fill-opacity:1;fillRule:evenodd;stroke:none" d="m 3494.79,5949.55 c 1.57,25.66 22.85,45.67 48.57,45.67 25.73,0 47.01,-20.01 48.58,-45.67 -30.45,15.81 -66.7,15.81 -97.15,0" />
      <path id="path208" style="fill:#ffffff;fill-opacity:1;fillRule:evenodd;stroke:none" d="m 3861.4,5491 c 51.55,51.31 38.99,157.72 39.19,294.83 -188.79,-7.42 -522.18,-6.21 -710.85,3.63 -1.61,-168.19 -2.42,-252.29 -2.42,-252.29 87.73,-133.32 538.27,-201 674.08,-46.17" />
      <path id="path210" style="fill:#ffffff;fill-opacity:1;fillRule:evenodd;stroke:none" d="m 3261.97,5760.36 c -17.42,-33.29 -24.83,-47.12 -25.39,-47.47 0,0 -47.07,74.71 -122.7,165.73 0,0 22.22,-2.65 38.67,-16.27 0,0 28.53,-18.7 109.42,-101.99" />
      <path id="path212" style="fill:#192031;fill-opacity:1;fillRule:evenodd;stroke:none" d="m 3091.01,5997.39 c 38.5,198.19 222.16,338.21 433.06,330.19 210.89,-8.03 386.41,-161.68 413.92,-362.38 -39.57,2.92 -72.11,31.66 -78.39,69.23 -51.56,-25.72 -111.97,-30.6 -167.9,-13.58 -55.91,17.03 -102.78,54.57 -130.24,104.33 -57.9,-62.67 -152.18,-81.36 -232.55,-46.11 -1.01,-60.96 -46.67,-112.25 -109.23,-122.7 26.46,-23.08 36.94,-58.5 26.91,-91.07 -10.01,-32.56 -38.75,-56.45 -73.86,-61.44 -74.42,35.85 -109.6,119.15 -81.72,193.53" />
      <path id="path214" style="fill:#192031;fill-opacity:1;fillRule:evenodd;stroke:none" d="m 11087.6,9558.18 c 0.7,-19.86 -14.8,-36.53 -34.7,-37.23 -19.9,-0.69 -36.5,14.83 -37.2,34.69 l -0.9,21.89 c -0.7,19.86 14.9,36.53 34.7,37.23 19.9,0.7 36.5,-14.84 37.2,-34.69 l 0.9,-21.89" />
      <path id="path216" style="fill:#192031;fill-opacity:1;fillRule:evenodd;stroke:none" d="m 11081.2,9724.88 c 0.7,-19.86 -14.9,-36.54 -34.7,-37.24 -19.9,-0.69 -36.5,14.84 -37.2,34.7 l -6.5,168.66 c -0.7,19.86 14.8,36.53 34.7,37.22 19.8,0.7 36.5,-14.83 37.2,-34.68 l 6.5,-168.66" />
      <path id="path218" style="fill:#192031;fill-opacity:1;fillRule:evenodd;stroke:none" d="m 11360.8,9461.98 c -11.8,-15.96 -34.4,-19.31 -50.3,-7.47 -16,11.84 -19.3,34.38 -7.5,50.35 l 13,17.61 c 11.9,15.96 34.4,19.31 50.4,7.47 15.9,-11.84 19.3,-34.38 7.4,-50.34 l -13,-17.62" />
      <path id="path220" style="fill:#192031;fill-opacity:1;fillRule:evenodd;stroke:none" d="m 11460,9596.12 c -11.8,-15.97 -34.4,-19.32 -50.3,-7.48 -16,11.85 -19.4,34.39 -7.5,50.35 l 107,144.68 c 11.8,15.97 34.4,19.32 50.3,7.47 16,-11.84 19.4,-34.38 7.5,-50.34 l -107,-144.68" />
      <path id="path222" style="fill:#192031;fill-opacity:1;fillRule:evenodd;stroke:none" d="m 11513.4,9218.61 c -19.2,-5.22 -39.1,6.15 -44.3,25.38 -5.2,19.23 6.2,39.07 25.4,44.29 l 21.1,5.74 c 19.3,5.22 39.1,-6.15 44.3,-25.39 5.2,-19.23 -6.1,-39.06 -25.4,-44.28 l -21.1,-5.74" />
      <path id="path224" style="fill:#192031;fill-opacity:1;fillRule:evenodd;stroke:none" d="m 11673.8,9262.16 c -19.3,-4.9 -38.9,6.78 -43.8,26.1 -4.9,19.31 6.7,38.95 26,43.86 l 166.7,42.46 c 19.3,4.9 38.9,-6.78 43.8,-26.09 4.9,-19.32 -6.7,-38.96 -26,-43.86 l -166.7,-42.47" />
    </g>
  </g>
</svg>