<?xml version="1.0" encoding="utf-8"?><!-- Uploaded to: SVG Repo, www.svgrepo.com, Generator: SVG Repo Mixer Tools -->
<svg width="800px" height="800px" viewBox="0 0 64 64" fill="none"
    xmlns="http://www.w3.org/2000/svg">
    <rect x="6" y="12" width="48" height="40" rx="5" fill="#0F277F"/>
    <path d="M12.5 20C13.3284 20 14 19.3284 14 18.5C14 17.6716 13.3284 17 12.5 17C11.6716 17 11 17.6716 11 18.5C11 19.3284 11.6716 20 12.5 20Z" fill="white"/>
    <path d="M17.5 20C18.3284 20 19 19.3284 19 18.5C19 17.6716 18.3284 17 17.5 17C16.6716 17 16 17.6716 16 18.5C16 19.3284 16.6716 20 17.5 20Z" fill="white"/>
    <path d="M22.5 20C23.3284 20 24 19.3284 24 18.5C24 17.6716 23.3284 17 22.5 17C21.6716 17 21 17.6716 21 18.5C21 19.3284 21.6716 20 22.5 20Z" fill="white"/>
    <path d="M56.0937 33.1179C57.2216 34.1503 57.2216 35.8497 56.0937 36.8821C52.6603 40.0249 44.955 46 36 46C27.045 46 19.3397 40.0249 15.9063 36.8821C14.7784 35.8497 14.7784 34.1503 15.9063 33.1179C19.3397 29.9751 27.045 24 36 24C44.955 24 52.6603 29.9751 56.0937 33.1179Z" fill="#FDAFA4"/>
    <circle cx="36" cy="35" r="7" fill="#0F277F"/>
    <path d="M41 33C42.1046 33 43 32.1046 43 31C43 29.8954 42.1046 29 41 29C39.8954 29 39 29.8954 39 31C39 32.1046 39.8954 33 41 33Z" fill="white"/>
    <path d="M39 34C39.5523 34 40 33.5523 40 33C40 32.4477 39.5523 32 39 32C38.4477 32 38 32.4477 38 33C38 33.5523 38.4477 34 39 34Z" fill="white"/>
</svg>